<?xml version="1.0" encoding="UTF-8" standalone="no"?>
<!-- Created with Inkscape (http://www.inkscape.org/) -->
<svg
   xmlns:svg="http://www.w3.org/2000/svg"
   xmlns="http://www.w3.org/2000/svg"
   version="1.0"
   width="162.5"
   height="162.5"
   id="svg101">
  <defs
     id="defs7" />
  <path
     d="M 18.2812,107.148 C 18.2812,107.148 19.2969,23.1286 19.2969,23.1286 C 19.2969,23.1286 62.9688,23.1286 62.9688,23.1286 C 62.9688,23.1286 62.9688,33.7926 62.9688,33.7926 C 62.9688,33.7926 142.188,33.7926 142.188,33.7926 C 142.188,33.7926 142.188,46.7188 142.188,46.7188"
     transform="matrix(1.06055,0,0,1.26923,-5.67732,5.17574)"
     style="font-size:12px;fill:#f0f0f8;fill-opacity:0.19607795;fill-rule:evenodd;stroke:#4a4b4f;stroke-width:8.08045006;stroke-linecap:round;stroke-linejoin:round"
     id="path312" />
  <path
     d="M 152.344,47.2266 C 152.344,47.2266 34.5312,47.2266 34.5312,47.2266 C 34.5312,47.2266 18.7891,107.148 18.7891,107.148 C 18.7891,107.148 139.648,107.148 139.648,107.148 C 139.648,107.148 153.867,47.7344 152.344,47.2266 z "
     transform="matrix(1.06055,0,0,1.26923,-5.67732,5.17574)"
     style="font-size:12px;fill:#e3f0f8;fill-opacity:0.748148;fill-rule:evenodd;stroke:#4a4b4f;stroke-width:8.08045006;stroke-linecap:round;stroke-linejoin:round"
     id="path311" />
  <rect
     width="75.593361"
     height="75.593361"
     x="4.1139221"
     y="4.6281409"
     style="font-size:12px;fill:#e3f0f8;fill-opacity:0.74901997;fill-rule:evenodd;stroke:#2f3338;stroke-width:6.25;stroke-linecap:round;stroke-linejoin:round"
     id="rect711" />
  <polygon
     points="53.3203,50.2734 33.7662,40.3692 14.5218,50.8625 17.8987,29.2049 1.97209,14.145 23.6133,10.6641 33.0145,-9.13682 43.0126,10.3695 64.7494,13.1918 49.2874,28.7283 53.3203,50.2734 "
     transform="matrix(1.18605,0,0,1.16927,2.191432,18.37504)"
     style="font-size:12px;fill:#7f7f7f;fill-rule:evenodd"
     id="polygon126" />
</svg>
