<?xml version="1.0" encoding="UTF-8" standalone="no"?>
<!-- Created with Inkscape (http://www.inkscape.org/) -->
<svg
   xmlns:svg="http://www.w3.org/2000/svg"
   xmlns="http://www.w3.org/2000/svg"
   version="1.0"
   width="162.5"
   height="162.5"
   id="svg101">
  <defs
     id="defs9" />
  <rect
     width="151.53732"
     height="98.530815"
     x="5.5859399"
     y="38.183739"
     style="font-size:12px;fill:#f0f0f8;fill-opacity:0.19607795;fill-rule:evenodd;stroke:#4a4b4f;stroke-width:7.67523003;stroke-linecap:round;stroke-linejoin:round"
     id="rect448" />
  <rect
     width="151.53732"
     height="8.7305994"
     x="5.5859399"
     y="29.453165"
     style="font-size:12px;fill:#f0f0f8;fill-opacity:0.19607795;fill-rule:evenodd;stroke:#4a4b4f;stroke-width:7.67523003;stroke-linecap:round;stroke-linejoin:round"
     id="rect450" />
  <path
     d="M 78.4505,78.5314 C 78.4505,78.5314 122.891,78.7109 122.891,78.7109 C 122.891,78.7109 104.102,66.0156 104.102,66.0156 C 104.102,66.0156 104.282,91.2012 104.282,91.2012 C 104.282,91.2012 122.952,78.7109 122.952,78.7109 C 122.952,78.7109 78.3889,78.4699 78.4505,78.5314 z "
     transform="matrix(0.650078,-0.650078,0.650078,0.650078,17.6517,75.5557)"
     style="font-size:12px;fill:#4a4b4f;fill-rule:evenodd;stroke:#4a4b4f;stroke-width:6.25;stroke-linecap:round;stroke-linejoin:round"
     id="path513" />
  <path
     d="M 78.4505,78.5314 C 78.4505,78.5314 122.891,78.7109 122.891,78.7109 C 122.891,78.7109 104.102,66.0156 104.102,66.0156 C 104.102,66.0156 104.282,91.2012 104.282,91.2012 C 104.282,91.2012 122.952,78.7109 122.952,78.7109 C 122.952,78.7109 78.3889,78.4699 78.4505,78.5314 z "
     transform="matrix(-0.650078,-0.650078,0.650078,-0.650078,42.954,177.775)"
     style="font-size:12px;fill:#4a4b4f;fill-rule:evenodd;stroke:#4a4b4f;stroke-width:6.25;stroke-linecap:round;stroke-linejoin:round"
     id="path658" />
  <path
     d="M 78.4505,78.5314 C 78.4505,78.5314 122.891,78.7109 122.891,78.7109 C 122.891,78.7109 104.102,66.0156 104.102,66.0156 C 104.102,66.0156 104.282,91.2012 104.282,91.2012 C 104.282,91.2012 122.952,78.7109 122.952,78.7109 C 122.952,78.7109 78.3889,78.4699 78.4505,78.5314 z "
     transform="matrix(-0.650078,0.650078,-0.650078,-0.650078,145.29,99.6599)"
     style="font-size:12px;fill:#4a4b4f;fill-rule:evenodd;stroke:#4a4b4f;stroke-width:6.25;stroke-linecap:round;stroke-linejoin:round"
     id="path659" />
  <path
     d="M 78.4505,78.5314 C 78.4505,78.5314 122.891,78.7109 122.891,78.7109 C 122.891,78.7109 104.102,66.0156 104.102,66.0156 C 104.102,66.0156 104.282,91.2012 104.282,91.2012 C 104.282,91.2012 122.952,78.7109 122.952,78.7109 C 122.952,78.7109 78.3889,78.4699 78.4505,78.5314 z "
     transform="matrix(0.650078,0.650078,-0.650078,0.650078,119.988,-2.55939)"
     style="font-size:12px;fill:#4a4b4f;fill-rule:evenodd;stroke:#4a4b4f;stroke-width:6.25;stroke-linecap:round;stroke-linejoin:round"
     id="path660" />
</svg>
