<?xml version="1.0" encoding="UTF-8" standalone="no"?>
<!-- Created with Inkscape (http://www.inkscape.org/) -->
<svg
   xmlns:svg="http://www.w3.org/2000/svg"
   xmlns="http://www.w3.org/2000/svg"
   version="1.0"
   width="162.5"
   height="162.5"
   id="svg101">
  <defs
     id="defs6" />
  <path
     d="M 139.141,85.3123 C 139.141,85.3123 138.633,33.5157 138.633,33.5157 C 138.633,33.5157 110.703,10.1562 110.703,10.1562 C 110.703,10.1562 28.9453,10.1562 28.9453,10.1562 C 28.9453,10.1562 29.4531,85.3127 29.4531,85.3123 M 29.4531,85.3123 C 29.4531,85.3123 41.3232,67.5388 41.2756,67.5388 C 41.228,67.5388 54.1455,104.609 53.7012,104.609 C 53.7647,105.117 69.9195,73.6326 70.2528,73.6326 C 70.0783,74.1404 86.5822,97.4998 86.8361,97.4998 C 86.5822,97.4998 103.594,72.617 103.927,72.617 C 103.753,72.617 122.447,98.0076 122.002,98.0076 C 122.066,98.5154 130.413,75.1561 130.365,75.1561 C 130.318,75.6639 139.141,85.3123 139.141,85.3123"
     transform="translate(1.01562,0)"
     style="font-size:12px;fill:#f0f0f8;fill-opacity:0.19607795;fill-rule:evenodd;stroke:#4a4b4f;stroke-width:12.5;stroke-linecap:round;stroke-linejoin:round"
     id="path218" />
  <path
     d="M 108.672,10.6641 C 108.672,10.6641 109.18,36.5625 109.18,36.5625 C 109.18,36.5625 140.664,36.5625 140.664,36.5625"
     transform="translate(-3.04688,3.04688)"
     style="font-size:12px;fill:#f0f0f8;fill-opacity:0.19607795;fill-rule:evenodd;stroke:#4a4b4f;stroke-width:6.25;stroke-linecap:round;stroke-linejoin:round"
     id="path219" />
  <path
     d="M 29.4531,85.3123 C 29.4531,85.3123 39.292,106.823 39.2444,106.823 C 39.1967,106.823 52.6221,56.9066 52.6856,55.9713 C 52.7491,56.4793 70.9351,109.176 71.2684,109.176 C 71.0939,109.683 86.5822,72.2456 86.8361,72.2456 C 86.5822,72.2456 103.594,114.707 103.927,114.707 C 103.753,114.707 123.97,70.8827 123.525,70.8827 C 123.589,71.3905 135.491,113.505 135.443,113.505 C 135.396,114.013 139.141,85.3123 139.141,85.3123 M 139.141,85.3123 C 139.141,85.3123 139.141,10.1562 139.141,10.1562 C 139.141,10.1562 28.9453,10.1562 28.9453,10.1562 C 28.9453,10.1562 29.4531,85.3127 29.4531,85.3123"
     transform="matrix(1,0,0,-0.542917,1.01562,161.412)"
     style="font-size:12px;fill:#f0f0f8;fill-opacity:0.19607795;fill-rule:evenodd;stroke:#4a4b4f;stroke-width:16.96459961;stroke-linecap:round;stroke-linejoin:round"
     id="path1282" />
</svg>
