<?xml version="1.0" encoding="UTF-8" standalone="no"?>
<!-- Created with Inkscape (http://www.inkscape.org/) -->
<svg
   xmlns:svg="http://www.w3.org/2000/svg"
   xmlns="http://www.w3.org/2000/svg"
   version="1.0"
   width="162.5"
   height="162.5"
   id="svg101">
  <defs
     id="defs145" />
  <path
     d="M 5.283847,24.35936 C 5.283847,24.35936 18.25867,24.35936 18.25867,24.35936 C 18.25867,24.35936 18.31876,10.12313 18.31876,10.12313 C 18.31876,10.12313 15.01495,7.359957 15.01495,7.359957 C 15.01495,7.359957 5.343915,7.359957 5.343915,7.359957 C 5.343915,7.359957 5.343915,24.47955 5.283847,24.35936 z "
     style="font-size:12px;fill:#f0f0f8;fill-opacity:0.19607795;fill-rule:evenodd;stroke:#4a4b4f;stroke-width:1.47861302;stroke-linecap:round;stroke-linejoin:round"
     id="path218" />
  <path
     d="M 14.29416,7.78043 C 14.29416,7.78043 14.35425,10.84393 14.35425,10.84393 C 14.35425,10.84393 18.07846,10.84393 18.07846,10.84393"
     style="font-size:12px;fill:#f0f0f8;fill-opacity:0.503704;fill-rule:evenodd;stroke:#4a4b4f;stroke-width:0.73930597;stroke-linecap:round;stroke-linejoin:round"
     id="path219" />
  <path
     d="M 6.244941,22.49726 L 17.35759,22.49726"
     style="font-size:12px;fill:none;fill-rule:evenodd;stroke:#000000;stroke-width:0.073931"
     id="path696" />
  <path
     d="M 5.283847,56.96873 C 5.283847,56.96873 18.25867,56.96873 18.25867,56.96873 C 18.25867,56.96873 18.31876,42.7325 18.31876,42.7325 C 18.31876,42.7325 15.01495,39.96933 15.01495,39.96933 C 15.01495,39.96933 5.343915,39.96933 5.343915,39.96933 C 5.343915,39.96933 5.343915,57.08891 5.283847,56.96873 z "
     style="font-size:12px;fill:#f0f0f8;fill-opacity:0.19607795;fill-rule:evenodd;stroke:#4a4b4f;stroke-width:1.47861302;stroke-linecap:round;stroke-linejoin:round"
     id="path941" />
  <path
     d="M 14.29416,40.38981 C 14.29416,40.38981 14.35425,43.4533 14.35425,43.4533 C 14.35425,43.4533 18.07846,43.4533 18.07846,43.4533"
     style="font-size:12px;fill:#f0f0f8;fill-opacity:0.503704;fill-rule:evenodd;stroke:#4a4b4f;stroke-width:0.73930597;stroke-linecap:round;stroke-linejoin:round"
     id="path984" />
  <path
     d="M 6.244941,55.10663 L 17.35759,55.10663"
     style="font-size:12px;fill:none;fill-rule:evenodd;stroke:#000000;stroke-width:0.073931"
     id="path985" />
  <path
     d="M 5.283847,88.97024 C 5.283847,88.97024 18.25867,88.97024 18.25867,88.97024 C 18.25867,88.97024 18.31876,74.734 18.31876,74.734 C 18.31876,74.734 15.01495,71.97083 15.01495,71.97083 C 15.01495,71.97083 5.343915,71.97083 5.343915,71.97083 C 5.343915,71.97083 5.343915,89.09042 5.283847,88.97024 z "
     style="font-size:12px;fill:#f0f0f8;fill-opacity:0.19607795;fill-rule:evenodd;stroke:#4a4b4f;stroke-width:1.47861302;stroke-linecap:round;stroke-linejoin:round"
     id="path1109" />
  <path
     d="M 14.29416,72.3913 C 14.29416,72.3913 14.35425,75.45479 14.35425,75.45479 C 14.35425,75.45479 18.07846,75.45479 18.07846,75.45479"
     style="font-size:12px;fill:#f0f0f8;fill-opacity:0.503704;fill-rule:evenodd;stroke:#4a4b4f;stroke-width:0.73930597;stroke-linecap:round;stroke-linejoin:round"
     id="path1152" />
  <path
     d="M 6.244941,87.10813 L 17.35759,87.10813"
     style="font-size:12px;fill:none;fill-rule:evenodd;stroke:#000000;stroke-width:0.073931"
     id="path1153" />
  <path
     d="M 5.283847,122.0658 C 5.283847,122.0658 18.25867,122.0658 18.25867,122.0658 C 18.25867,122.0658 18.31876,107.8296 18.31876,107.8296 C 18.31876,107.8296 15.01495,105.0664 15.01495,105.0664 C 15.01495,105.0664 5.343915,105.0664 5.343915,105.0664 C 5.343915,105.0664 5.343915,122.186 5.283847,122.0658 z "
     style="font-size:12px;fill:#f0f0f8;fill-opacity:0.19607795;fill-rule:evenodd;stroke:#4a4b4f;stroke-width:1.47861302;stroke-linecap:round;stroke-linejoin:round"
     id="path1163" />
  <path
     d="M 14.29416,105.4869 C 14.29416,105.4869 14.35425,108.5504 14.35425,108.5504 C 14.35425,108.5504 18.07846,108.5504 18.07846,108.5504"
     style="font-size:12px;fill:#f0f0f8;fill-opacity:0.503704;fill-rule:evenodd;stroke:#4a4b4f;stroke-width:0.73930597;stroke-linecap:round;stroke-linejoin:round"
     id="path1206" />
  <path
     d="M 6.244941,120.2037 L 17.35759,120.2037"
     style="font-size:12px;fill:none;fill-rule:evenodd;stroke:#000000;stroke-width:0.073931"
     id="path1207" />
  <path
     d="M 5.283847,152.364 C 5.283847,152.364 18.25867,152.364 18.25867,152.364 C 18.25867,152.364 18.31876,138.1277 18.31876,138.1277 C 18.31876,138.1277 15.01495,135.3646 15.01495,135.3646 C 15.01495,135.3646 5.343915,135.3646 5.343915,135.3646 C 5.343915,135.3646 5.343915,152.4842 5.283847,152.364 z "
     style="font-size:12px;fill:#f0f0f8;fill-opacity:0.19607795;fill-rule:evenodd;stroke:#4a4b4f;stroke-width:1.47861302;stroke-linecap:round;stroke-linejoin:round"
     id="path1217" />
  <path
     d="M 14.29416,135.7851 C 14.29416,135.7851 14.35425,138.8485 14.35425,138.8485 C 14.35425,138.8485 18.07846,138.8485 18.07846,138.8485"
     style="font-size:12px;fill:#f0f0f8;fill-opacity:0.503704;fill-rule:evenodd;stroke:#4a4b4f;stroke-width:0.73930597;stroke-linecap:round;stroke-linejoin:round"
     id="path1260" />
  <path
     d="M 6.244941,150.5019 L 17.35759,150.5019"
     style="font-size:12px;fill:none;fill-rule:evenodd;stroke:#000000;stroke-width:0.073931"
     id="path1261" />
  <path
     d="M 31.392387,15.423032 L 151.72052,15.423032"
     style="font-size:12px;fill:none;fill-rule:evenodd;stroke:#4a4b4f;stroke-width:10.3681736;stroke-linecap:round;stroke-linejoin:round;stroke-dasharray:10.36817358, 20.73634717;stroke-dashoffset:0;stroke-opacity:1"
     id="path1494" />
  <path
     d="M 31.392387,48.698167 L 105.71274,48.698167"
     style="font-size:12px;fill:none;fill-rule:evenodd;stroke:#4a4b4f;stroke-width:10.3681736;stroke-linecap:round;stroke-linejoin:round;stroke-dasharray:10.36817358, 20.73634717;stroke-dashoffset:0;stroke-opacity:1"
     id="path1498" />
  <path
     d="M 31.392387,80.520804 L 151.72052,80.520804"
     style="font-size:12px;fill:none;fill-rule:evenodd;stroke:#4a4b4f;stroke-width:10.3681736;stroke-linecap:round;stroke-linejoin:round;stroke-dasharray:10.36817358, 20.73634717;stroke-dashoffset:0;stroke-opacity:1"
     id="path651" />
  <path
     d="M 31.392387,113.79587 L 151.72052,113.79587"
     style="font-size:12px;fill:none;fill-rule:evenodd;stroke:#4a4b4f;stroke-width:10.3681736;stroke-linecap:round;stroke-linejoin:round;stroke-dasharray:10.36817358, 20.73634717;stroke-dashoffset:0;stroke-opacity:1"
     id="path653" />
  <path
     d="M 31.392387,144.28541 L 105.71274,144.28541"
     style="font-size:12px;fill:none;fill-rule:evenodd;stroke:#4a4b4f;stroke-width:10.3681736;stroke-linecap:round;stroke-linejoin:round;stroke-dasharray:10.36817358, 20.73634717;stroke-dashoffset:0;stroke-opacity:1"
     id="path1464" />
</svg>
